<svg width="107" height="79" viewBox="0 0 107 79" fill="none" xmlns="http://www.w3.org/2000/svg">
<path d="M17.5777 16.4953C17.5777 7.38519 25.8617 0 36.0806 0H70.7735C80.9924 0 89.2764 7.38519 89.2764 16.4953V53.6097H17.5777V16.4953Z" fill="#5C8C8C"/>
<path fill-rule="evenodd" clip-rule="evenodd" d="M70.7735 2.06191H36.0806C27.1391 2.06191 19.8906 8.52396 19.8906 16.4953V51.5478H86.9635V16.4953C86.9635 8.52396 79.715 2.06191 70.7735 2.06191ZM36.0806 0C25.8617 0 17.5777 7.38519 17.5777 16.4953V53.6097H89.2764V16.4953C89.2764 7.38519 80.9924 0 70.7735 0H36.0806Z" fill="black"/>
<path d="M19.8189 34.2861V25.5506C19.8189 20.3119 15.6412 16.0651 10.4877 16.0651C5.33421 16.0651 1.15649 20.3119 1.15649 25.5506V58.5806C1.15649 69.7729 10.713 78.4886 21.6588 77.2792L52.3075 73.8928C53.6665 73.7426 55.0377 73.746 56.396 73.9029L84.6432 77.1659C95.619 78.4337 105.235 69.7064 105.235 58.4774V25.5125C105.235 20.2948 101.074 16.0651 95.9416 16.0651C90.8088 16.0651 86.6478 20.2948 86.6478 25.5125V34.2861C86.6478 44.3492 78.6227 52.507 68.7232 52.507H37.7436C27.844 52.507 19.8189 44.3492 19.8189 34.2861Z" fill="#5C8C8C"/>
<path fill-rule="evenodd" clip-rule="evenodd" d="M10.4876 17.2407C5.97283 17.2407 2.31286 20.9611 2.31286 25.5506V58.5806C2.31286 69.0734 11.2721 77.2444 21.5338 76.1105L52.1824 72.7241C53.6264 72.5645 55.0834 72.5682 56.5265 72.7349L84.7737 75.9978C95.0635 77.1865 104.079 69.0046 104.079 58.4774V25.5125C104.079 20.9441 100.436 17.2407 95.9415 17.2407C91.4474 17.2407 87.8042 20.9441 87.8042 25.5125V34.2861C87.8042 44.9985 79.2613 53.6826 68.7231 53.6826H37.7435C27.2053 53.6826 18.6624 44.9985 18.6624 34.2861V25.5506C18.6624 20.9611 15.0024 17.2407 10.4876 17.2407ZM0 25.5506C0 19.6627 4.69547 14.8896 10.4876 14.8896C16.2798 14.8896 20.9753 19.6627 20.9753 25.5506V34.2861C20.9753 43.7 28.4827 51.3315 37.7435 51.3315H68.7231C77.9839 51.3315 85.4913 43.7 85.4913 34.2861V25.5125C85.4913 19.6456 90.17 14.8896 95.9415 14.8896C101.713 14.8896 106.392 19.6456 106.392 25.5125V58.4774C106.392 70.4082 96.1743 79.681 84.5126 78.3339L56.2654 75.0709C54.992 74.9238 53.7065 74.9206 52.4324 75.0614L21.7837 78.4479C10.1538 79.7329 0 70.4724 0 58.5806V25.5506Z" fill="black"/>
</svg>
