<svg width="107" height="80" viewBox="0 0 107 80" fill="none" xmlns="http://www.w3.org/2000/svg">
<path d="M18.0098 17.1967C18.0098 8.08658 26.2938 0.701385 36.5127 0.701385H71.2056C81.4245 0.701385 89.7085 8.08658 89.7085 17.1967V54.3111H18.0098V17.1967Z" fill="#AE5959"/>
<path fill-rule="evenodd" clip-rule="evenodd" d="M71.2056 2.7633H36.5127C27.5712 2.7633 20.3227 9.22534 20.3227 17.1967V52.2492H87.3956V17.1967C87.3956 9.22534 80.1471 2.7633 71.2056 2.7633ZM36.5127 0.701385C26.2938 0.701385 18.0098 8.08658 18.0098 17.1967V54.3111H89.7085V17.1967C89.7085 8.08658 81.4245 0.701385 71.2056 0.701385H36.5127Z" fill="black"/>
<path d="M20.2508 34.9874V26.2519C20.2508 21.0133 16.0731 16.7665 10.9196 16.7665C5.76616 16.7665 1.58844 21.0132 1.58844 26.2519V59.282C1.58844 70.4742 11.1449 79.19 22.0907 77.9806L52.7394 74.5941C54.0985 74.444 55.4697 74.4474 56.828 74.6043L85.0752 77.8672C96.0509 79.1351 105.667 70.4077 105.667 59.1788V26.2138C105.667 20.9962 101.506 16.7665 96.3735 16.7665C91.2407 16.7665 87.0798 20.9962 87.0798 26.2138V34.9874C87.0798 45.0506 79.0546 53.2084 69.1551 53.2084H38.1755C28.276 53.2084 20.2508 45.0506 20.2508 34.9874Z" fill="#AE5959"/>
<path fill-rule="evenodd" clip-rule="evenodd" d="M10.9196 17.942C6.40477 17.942 2.74481 21.6625 2.74481 26.2519V59.282C2.74481 69.7747 11.704 77.9457 21.9657 76.8119L52.6144 73.4255C54.0584 73.2659 55.5153 73.2695 56.9585 73.4362L85.2057 76.6992C95.4954 77.8878 104.511 69.7059 104.511 59.1788V26.2138C104.511 21.6454 100.868 17.942 96.3734 17.942C91.8793 17.942 88.2362 21.6454 88.2362 26.2138V34.9874C88.2362 45.6998 79.6932 54.3839 69.155 54.3839H38.1755C27.6373 54.3839 19.0943 45.6998 19.0943 34.9874V26.2519C19.0943 21.6625 15.4344 17.942 10.9196 17.942ZM0.431946 26.2519C0.431946 20.364 5.12742 15.5909 10.9196 15.5909C16.7117 15.5909 21.4072 20.364 21.4072 26.2519V34.9874C21.4072 44.4013 28.9146 52.0328 38.1755 52.0328H69.155C78.4159 52.0328 85.9233 44.4013 85.9233 34.9874V26.2138C85.9233 20.347 90.602 15.5909 96.3734 15.5909C102.145 15.5909 106.824 20.347 106.824 26.2138V59.1788C106.824 71.1096 96.6063 80.3823 84.9445 79.0352L56.6973 75.7723C55.4239 75.6252 54.1384 75.622 52.8643 75.7628L22.2156 79.1492C10.5857 80.4342 0.431946 71.1737 0.431946 59.282V26.2519Z" fill="black"/>
</svg>
