<svg width="107" height="79" viewBox="0 0 107 79" fill="none" xmlns="http://www.w3.org/2000/svg">
<path d="M17.7888 16.4953C17.7888 7.38519 26.0728 0 36.2916 0H70.9846C81.2034 0 89.4875 7.38519 89.4875 16.4953V53.6097H17.7888V16.4953Z" fill="#3285D2"/>
<path fill-rule="evenodd" clip-rule="evenodd" d="M70.9846 2.06191H36.2916C27.3501 2.06191 20.1016 8.52396 20.1016 16.4953V51.5478H87.1746V16.4953C87.1746 8.52396 79.9261 2.06191 70.9846 2.06191ZM36.2916 0C26.0728 0 17.7888 7.38519 17.7888 16.4953V53.6097H89.4875V16.4953C89.4875 7.38519 81.2034 0 70.9846 0H36.2916Z" fill="black"/>
<path d="M20.03 34.286V25.5505C20.03 20.3119 15.8523 16.0651 10.6988 16.0651C5.54533 16.0651 1.36761 20.3119 1.36761 25.5505V58.5806C1.36761 69.7729 10.9241 78.4886 21.8699 77.2792L52.5186 73.8927C53.8776 73.7426 55.2489 73.746 56.6072 73.9029L84.8543 77.1658C95.8301 78.4337 105.446 69.7064 105.446 58.4774V25.5124C105.446 20.2948 101.285 16.0651 96.1527 16.0651C91.0199 16.0651 86.859 20.2948 86.859 25.5124V34.286C86.859 44.3492 78.8338 52.507 68.9343 52.507H37.9547C28.0552 52.507 20.03 44.3492 20.03 34.286Z" fill="#3285D2"/>
<path fill-rule="evenodd" clip-rule="evenodd" d="M10.6988 17.2406C6.18395 17.2406 2.52398 20.9611 2.52398 25.5505V58.5806C2.52398 69.0733 11.4832 77.2444 21.7449 76.1105L52.3936 72.7241C53.8375 72.5645 55.2945 72.5681 56.7377 72.7348L84.9848 75.9978C95.2746 77.1864 104.29 69.0046 104.29 58.4774V25.5124C104.29 20.9441 100.647 17.2406 96.1526 17.2406C91.6585 17.2406 88.0153 20.9441 88.0153 25.5124V34.286C88.0153 44.9984 79.4724 53.6825 68.9342 53.6825H37.9546C27.4164 53.6825 18.8735 44.9984 18.8735 34.286V25.5505C18.8735 20.9611 15.2136 17.2406 10.6988 17.2406ZM0.211121 25.5505C0.211121 19.6626 4.90659 14.8896 10.6988 14.8896C16.4909 14.8896 21.1864 19.6626 21.1864 25.5505V34.286C21.1864 43.7 28.6938 51.3314 37.9546 51.3314H68.9342C78.1951 51.3314 85.7025 43.7 85.7025 34.286V25.5124C85.7025 19.6456 90.3811 14.8896 96.1526 14.8896C101.924 14.8896 106.603 19.6456 106.603 25.5124V58.4774C106.603 70.4082 96.3854 79.681 84.7237 78.3339L56.4765 75.0709C55.2031 74.9238 53.9176 74.9206 52.6435 75.0614L21.9948 78.4478C10.3649 79.7328 0.211121 70.4724 0.211121 58.5806V25.5505Z" fill="black"/>
</svg>
